<?xml version="1.0" encoding="UTF-8"?>
<svg id="a" xmlns="http://www.w3.org/2000/svg" version="1.1" viewBox="0 0 280.9 89.5">
  <!-- Generator: Adobe Illustrator 30.3.0, SVG Export Plug-In . SVG Version: 2.1.3 Build 182)  -->
  <defs>
    <style>
      .st0 {
        fill: #372e2d;
      }
    </style>
  </defs>
  <path class="st0" d="M131,21.7c.8-4.5,1.7-7.7,4.5-7.7s4.1,2.3,6.6,2.3,2.7-1.7,2.7-4.7-1.3-2.9-3.3-2.9c-9,0-18,9.1-20,22.6h-12.6l1.7-9.6c.8-4.5,1.7-7.7,4.5-7.7s4.1,2.3,6.6,2.3,2.7-1.7,2.7-4.7-1.3-2.9-3.3-2.9c-9,0-18,9.1-20,22.6h-7.1l-.8,3.6h7l-3.1,14.2c-3.7,3.8-11.3,10.2-12.3,10.2s-.9-.5-.9-1.4.3-2,1.1-4.3l6.7-20-4.5-1.9c-.4-.1-.7-.2-.9-.2-1,0-1.8,2.3-4.4,7.5-2.3,4.7-12.4,19.7-15.8,19.7s-1.1-.6-1.1-1.3c0-1.2,1.1-4.3,3.4-10.3,2.2-5.9,3.4-10,3.4-12.1s-1.1-3.6-3.4-3.6c-3.2,0-7.4,3.4-13.4,10.3l1.4,1.4,1.9-1.7c1.5-1.4,3-2.4,3.7-2.4s1,.5,1,1-1.1,4-3.2,10.3c-2.1,6.2-3.8,9.5-3.8,10.9-1.3-1-2.4-2.6-3.7-4.7l-4.7-8c-2.4-4-3.5-6-6.3-9,9.1-2.2,13.8-7.2,13.8-14.2s-5-10.8-14.6-10.8-8.2.3-11.8.3-7.9-.3-9.9-.3l-.4,2.2c5.1,0,6.5,1,6.5,3.5s-.6,4.5-.9,6.4l-5.9,31.7c-.9,4.2-2.8,4.2-6.8,4.2l-.4,2.2c3.4,0,7.5-.3,10.3-.3,2.7,0,8.3.2,12.1.3l.3-2.2h-2.3c-3.3,0-4.4-.9-4.4-2.9s0-.8.4-2.8l3-16.8h1.9c4.7,7,9.4,17.2,14.9,24.6,1.4,0,4.1-.3,6.3-.3s5.3.3,7.1.3c8.1,0,15.9-12.7,20.5-20.1h.1c-4.2,12.4-5.3,16.2-5.3,17.8s1.1,3.3,3.5,3.3,10.6-6.5,16.8-12.7l-5.9,27.1.8.6,4.9-1.8c4.2-14,9-28.3,12.1-44h12.6l-9.8,45.2.8.6,4.9-1.8c4.2-14,9-28.3,12.1-44h8.4l.8-3.6h-8.3l1.7-9.6h0ZM30.4,37.8l3.5-20.6h3.2c5.9,0,7.5,3.8,7.5,7.8,0,7.8-4.2,12.9-11.1,12.9s-2.2,0-3.2-.1h0ZM260,36.2c2.9,0,5.9,1,6.9,4.1h1.7c.6-.9,1.7-2.7,1.7-4.4,0-3.2-2.2-4.6-7.3-4.6s-3.3.1-4.9.9c-4,2.1-9.1,6.1-9.1,10.3s1.4,4.5,3.5,5.9c1.9,1.2,4.6,3,6.9,4.5,3.5,2.4,4,3.2,4,4.5,0,2.3-2.2,2.9-5.4,2.9-4.7,0-10.2-2.8-10.1-6.6h0c0-3.4-1.4-4.8-4.7-6.9l-4.3-2.7c-3-1.9-4.7-3.5-4.7-5.2s2.2-2.8,5.5-2.8,5.9,1,6.9,4.1h1.7c.6-.9,1.7-2.7,1.7-4.4,0-3.2-2.2-4.6-7.3-4.6s-3.3.1-4.9.9c-4,2.1-9.1,6.1-9.1,10.3s1.4,4.5,3.5,5.9c1.9,1.2,4.6,3,6.9,4.5,3.5,2.4,4,3.2,4,4.5,0,2.3-2.2,2.9-5.4,2.9-4.7,0-9.6-1.9-10.2-6h-1.4c-4.6,4.7-8.8,6.4-12.4,6.4s-5.6-3-5.6-6.5.2-3,.4-3.9c12.9-1.9,20.8-6.5,20.8-13s-2.9-6.2-7.6-6.2-9,2-12.6,5.1c.2-.7.4-1.5.4-2.3,0-1.8-1-2.8-3-2.8-5.5,0-11,11-14.4,16.3h-.1c1.1-4.1,3.2-9.4,3.2-13.1s-.8-3.2-3-3.2-4.3.3-7.2,1.4c1-1.9,1.6-4,1.6-6.5,0-7.3-5-11.7-14.7-11.7s-9.9.3-13.1.3-6.1-.2-9.1-.3l-.4,2.2c5.1,0,6.5,1,6.5,3.5s-.6,4.5-.9,6.4l-5.9,31.7c-.9,4.2-2.7,4.2-6.8,4.2l-.4,2.2c3.5,0,7-.3,10.8-.3s9.6.3,12.1.3l.3-2.2h-1.2c-4.5,0-5.7-.9-5.7-2.9s.1-2.4.3-3l7.1-39.1c.6,0,2.4-.3,3.6-.3,5.1,0,7.5,3.3,7.5,8.9s-3.5,12.4-8.8,12.4-2.4-.1-3.4-.3l-.5,2.7c1.2.2,3.4.4,5.5.4s4.8-.5,7.1-1.4h0c.1,0,.3-.1.5-.2,0,0,0,0,.1,0,4.2-1.7,8.2-1.1,9.1-.8.9.3,1,.9,1,1.6,0,1.2-1.5,6.5-1.5,6.5l-3.4,11.4c-.9,2.9-1.4,5.1-1.4,5.3,0,.6.6,1.3,3.4,1.3s3.4-.5,3.8-1.2c.2-.4.7-2.5,1.7-5.5.7-2.1,3-7.1,4.7-10.3,3.2-5.7,6.1-9.1,8.3-9.1s1.7.4,3.2.4.3,0,.4,0c-3.8,4.4-6.2,10-6.2,15.4s3.4,11,9.4,11,9.1-1.7,14.4-6c0,0,0,0,0,0,0,3.7,4.5,6,9.9,6s8.1-2.1,10.7-4.7c.9,2.9,4.9,4.7,9.7,4.7,8,0,14.2-7.2,14.2-11.9s-1.4-4.9-4.7-7l-4.3-2.7c-3-1.9-4.7-3.5-4.7-5.2s2.2-2.8,5.5-2.8h0ZM219,34.1c2,0,2.7,1.1,2.7,2.9,0,5.2-6,10.4-12.6,10.8,1.5-6.2,6.2-13.7,9.9-13.7h0Z"/>
</svg>